<svg width="22" height="22" viewBox="0 0 22 22" fill="none" xmlns="http://www.w3.org/2000/svg">
<path d="M22.001 11.0011C22.0008 8.89896 21.3982 6.84094 20.2647 5.07065C19.1312 3.30035 17.5142 1.89192 15.605 1.01208C13.6959 0.132245 11.5747 -0.182145 9.49246 0.106132C7.41023 0.394409 5.45419 1.27328 3.85593 2.6387C2.25766 4.00411 1.0841 5.79889 0.474181 7.81056C-0.13574 9.82223 -0.156481 11.9665 0.414414 13.9896C0.985309 16.0127 2.12393 17.8299 3.69549 19.2259C5.26704 20.622 7.20571 21.5386 9.28198 21.8671V14.1801H6.48698V11.0001H9.28198V8.57706C9.28198 5.82006 10.923 4.29806 13.438 4.29806C14.2631 4.3096 15.0863 4.38146 15.901 4.51306V7.21806H14.512C14.2754 7.18661 14.0348 7.20882 13.808 7.28303C13.5812 7.35725 13.374 7.48157 13.2018 7.64678C13.0295 7.81198 12.8967 8.01384 12.8131 8.23737C12.7296 8.46091 12.6974 8.70039 12.719 8.93806V11.0031H15.77L15.282 14.1831H12.719V21.8701C15.3071 21.4608 17.6642 20.1411 19.3658 18.1485C21.0675 16.1559 22.0019 13.6214 22.001 11.0011Z" fill="white"/>
</svg>
