<svg width="180" height="180" viewBox="0 0 180 180" fill="none" xmlns="http://www.w3.org/2000/svg">
<path d="M180 0H0V180H180V0Z" fill="#061944"/>
<path d="M56.1 151.23H31.74V34.05H149.36V136.24" stroke="white" stroke-width="5" stroke-miterlimit="10"/>
<path d="M72.47 120V60H107.53V69.59H83.55V84.85H104.22V94.53H83.55V110.4H107.53V119.99H72.47V120Z" fill="white"/>
<path d="M77.11 153.96C77.11 153.68 77.04 153.54 76.9 153.54H76.14L72.13 143.73H70.89L67.16 153.54H66.06V154.02H69.24C69.24 153.74 69.17 153.6 69.03 153.6H67.85L69.09 150.28H72.47L73.78 153.6H72.54V154.08H77.1V153.94L77.11 153.96ZM72.27 149.69H69.3L70.75 145.75L72.27 149.69Z" fill="white"/>
<path d="M85.96 153.55H85.41V146.64H82.37V147.06H83.2V151.34C83.13 152.24 82.78 152.79 82.23 153.14C82.09 153.21 81.89 153.28 81.68 153.28C81.06 153.28 80.64 152.94 80.58 152.18V146.65H77.4V147.07H78.37V151.35C78.37 153.21 79.2 154.11 80.79 154.11C81.83 154.11 82.59 153.63 83.14 152.73C83.21 152.66 83.21 152.59 83.21 152.52L83.28 153.9H86.39C86.39 153.62 86.32 153.48 86.18 153.48C86.11 153.55 86.04 153.55 85.97 153.55H85.95H85.96Z" fill="white"/>
<path d="M86.94 147.12H88.12V151.4C88.12 153.06 88.81 153.96 90.19 154.1H90.61C91.51 154.1 92.06 153.82 92.41 153.27C92.55 152.99 92.69 152.58 92.75 152.17L92.27 152.1C92.06 153 91.72 153.55 91.23 153.62H91.02C90.6 153.62 90.33 153.34 90.26 152.72V147.12H92.47V146.7H90.26V144.7L88.12 145.04V146.7H86.94V147.12Z" fill="white"/>
<path d="M95.72 150.23C95.72 148.64 95.93 147.61 96.34 147.19C96.55 146.91 96.89 146.77 97.38 146.77C98.14 146.77 98.56 147.11 98.76 147.87C98.9 148.35 98.97 149.11 98.97 150.15C98.97 151.81 98.76 152.85 98.35 153.26C98.07 153.47 97.8 153.6 97.38 153.6C96.69 153.6 96.2 153.26 96 152.5C95.79 152.08 95.72 151.32 95.72 150.22V150.23ZM97.45 146.36C96.07 146.36 94.96 146.84 94.2 147.81C93.65 148.5 93.44 149.33 93.44 150.23C93.44 151.54 93.86 152.51 94.75 153.27C95.44 153.89 96.27 154.17 97.31 154.17C98.62 154.17 99.73 153.69 100.49 152.72C101.04 151.96 101.32 151.13 101.32 150.16C101.32 148.92 100.84 147.88 99.94 147.19C99.25 146.64 98.42 146.36 97.45 146.36Z" fill="white"/>
<path d="M105.57 153.55H105.23V149.13C105.3 148.23 105.57 147.61 106.13 147.33C106.27 147.26 106.41 147.19 106.55 147.19C106.97 147.19 107.24 147.47 107.45 147.95C107.52 148.23 107.59 148.5 107.59 148.78V152.58C107.59 153.06 107.45 153.34 107.25 153.41C107.11 153.41 106.97 153.48 106.83 153.48V153.9H110.42C110.42 153.62 110.35 153.48 110.21 153.48H109.73V148.99C109.8 148.02 110.15 147.47 110.63 147.19C110.77 147.12 110.84 147.12 110.97 147.12C111.45 147.12 111.8 147.4 112.01 147.95C112.08 148.16 112.08 148.43 112.08 148.71V152.51C112.08 152.99 111.94 153.27 111.74 153.34C111.6 153.34 111.46 153.41 111.32 153.41V153.83H115.19C115.19 153.55 115.12 153.41 114.98 153.41H114.22V148.92C114.22 147.82 113.88 146.98 113.12 146.57C112.78 146.36 112.43 146.23 112.02 146.23C110.92 146.23 110.08 146.78 109.53 147.82C109.25 146.99 108.77 146.51 108.08 146.3C107.87 146.23 107.74 146.23 107.53 146.23C106.43 146.23 105.67 146.71 105.11 147.75L105.18 146.65H102.14V147.07H103.11V152.67C103.11 153.22 102.83 153.5 102.35 153.57H102.07V153.99H105.94C105.94 153.71 105.87 153.57 105.73 153.57H105.59L105.57 153.55Z" fill="white"/>
<path d="M118.41 150.23C118.41 148.64 118.62 147.61 119.03 147.19C119.24 146.91 119.58 146.77 120.07 146.77C120.83 146.77 121.25 147.11 121.45 147.87C121.59 148.35 121.66 149.11 121.66 150.15C121.66 151.81 121.45 152.85 121.04 153.26C120.76 153.47 120.49 153.6 120.07 153.6C119.38 153.6 118.89 153.26 118.69 152.5C118.55 152.08 118.41 151.32 118.41 150.22V150.23ZM120.14 146.36C118.76 146.36 117.65 146.84 116.89 147.81C116.34 148.5 116.13 149.33 116.13 150.23C116.13 151.54 116.55 152.51 117.44 153.27C118.13 153.89 118.96 154.17 120 154.17C121.31 154.17 122.42 153.69 123.18 152.72C123.73 151.96 124.01 151.13 124.01 150.16C124.01 148.92 123.53 147.88 122.63 147.19C121.94 146.64 121.11 146.36 120.14 146.36Z" fill="white"/>
<path d="M129.92 154.16C131.02 154.16 131.92 153.74 132.62 152.92C133.24 152.16 133.52 151.26 133.52 150.09C133.52 148.64 133.04 147.53 132.14 146.91C131.66 146.57 131.1 146.43 130.55 146.43C129.37 146.43 128.48 147.05 127.93 148.16V142.91H124.82V143.39H125.79V152.72C125.79 153.2 125.58 153.48 125.24 153.55H124.82V154.03H127.44L127.58 152.85C128.13 153.68 128.96 154.09 129.93 154.16H129.92ZM129.71 147.18C130.68 147.18 131.16 148.22 131.16 150.29C131.16 152.5 130.61 153.67 129.57 153.67C128.81 153.67 128.33 153.19 128.05 152.22C127.91 151.74 127.84 151.25 127.84 150.63C127.84 149.11 128.18 148.01 128.81 147.52C129.15 147.24 129.43 147.18 129.71 147.18Z" fill="white"/>
<path d="M138.22 153.55H137.6V146.64H134.42V147.06H135.39V152.66C135.39 153.14 135.18 153.49 134.77 153.49H134.35V153.91H138.57C138.57 153.63 138.5 153.49 138.36 153.49C138.36 153.56 138.29 153.56 138.22 153.56V153.55ZM137.74 144.35C137.74 143.87 137.53 143.45 137.05 143.25C136.84 143.11 136.63 143.11 136.43 143.11C135.95 143.11 135.6 143.32 135.33 143.8C135.19 144.01 135.19 144.22 135.19 144.42C135.19 144.9 135.4 145.25 135.88 145.52C136.09 145.59 136.3 145.66 136.5 145.66C136.98 145.66 137.4 145.45 137.6 145.04C137.67 144.76 137.74 144.56 137.74 144.35Z" fill="white"/>
<path d="M143.61 153.55H142.78V142.84H139.26V143.26H140.57V152.59C140.57 153.07 140.36 153.35 140.02 153.42C139.81 153.49 139.6 153.49 139.26 153.49V153.91H144.03C144.03 153.63 143.96 153.49 143.82 153.49C143.75 153.56 143.68 153.56 143.61 153.56V153.55Z" fill="white"/>
<path d="M148.65 146.77C149.41 146.77 149.75 147.39 149.75 148.63C149.75 149.18 149.61 149.53 149.27 149.6C149.06 149.67 148.72 149.74 148.23 149.67H147.13C147.27 147.81 147.75 146.84 148.65 146.77ZM151.83 152.23L151.41 152.09C151.07 152.78 150.58 153.27 149.89 153.54C149.61 153.61 149.34 153.68 149.06 153.68C148.16 153.68 147.54 153.13 147.26 151.95C147.19 151.47 147.12 150.91 147.12 150.22L148.71 150.29C150.57 150.36 151.61 150.08 151.89 149.46C151.96 149.32 151.96 149.12 151.96 148.91C151.96 147.94 151.48 147.25 150.44 146.77C149.89 146.56 149.26 146.43 148.58 146.43C147.27 146.43 146.3 146.85 145.54 147.74C144.99 148.43 144.71 149.26 144.71 150.3C144.71 151.96 145.33 153.13 146.57 153.76C147.19 154.04 147.81 154.24 148.57 154.24C149.88 154.24 150.85 153.76 151.47 152.86C151.68 152.58 151.75 152.38 151.81 152.24L151.83 152.23Z" fill="white"/>
</svg>
