<svg width="19" height="19" viewBox="0 0 19 19" fill="none" xmlns="http://www.w3.org/2000/svg">
<path d="M9.50599 4.62784C8.5428 4.62784 7.60123 4.91346 6.80037 5.44859C5.9995 5.98371 5.3753 6.7443 5.0067 7.63417C4.6381 8.52405 4.54166 9.50325 4.72957 10.4479C4.91748 11.3926 5.3813 12.2604 6.06238 12.9415C6.74347 13.6225 7.61122 14.0864 8.5559 14.2743C9.50059 14.4622 10.4798 14.3657 11.3697 13.9971C12.2595 13.6285 13.0201 13.0043 13.5553 12.2035C14.0904 11.4026 14.376 10.461 14.376 9.49784C14.3769 8.85805 14.2516 8.22436 14.0072 7.63309C13.7627 7.04181 13.4041 6.50458 12.9517 6.05218C12.4993 5.59977 11.962 5.24109 11.3708 4.99667C10.7795 4.75226 10.1458 4.62692 9.50599 4.62784ZM9.50599 12.6648C8.87982 12.6648 8.2677 12.4792 7.74706 12.1313C7.22641 11.7834 6.82062 11.2889 6.58099 10.7104C6.34136 10.1319 6.27867 9.49533 6.40083 8.88119C6.52299 8.26704 6.82452 7.70292 7.26729 7.26014C7.71007 6.81737 8.27419 6.51584 8.88834 6.39368C9.50248 6.27152 10.1391 6.33421 10.7176 6.57384C11.2961 6.81347 11.7905 7.21926 12.1384 7.73991C12.4863 8.26055 12.672 8.87267 12.672 9.49884C12.6699 10.3377 12.3356 11.1415 11.7422 11.7345C11.1489 12.3275 10.3448 12.6613 9.50599 12.6628V12.6648ZM15.706 4.42884C15.706 4.65361 15.6393 4.87332 15.5144 5.06018C15.3895 5.24704 15.212 5.39264 15.0043 5.47856C14.7966 5.56448 14.5681 5.58686 14.3476 5.54287C14.1272 5.49887 13.9248 5.39048 13.766 5.23141C13.6072 5.07233 13.4992 4.86973 13.4556 4.64924C13.412 4.42874 13.4348 4.20027 13.521 3.99273C13.6073 3.78519 13.7532 3.60791 13.9403 3.48332C14.1274 3.35874 14.3472 3.29245 14.572 3.29284C14.7211 3.29271 14.8688 3.32202 15.0066 3.37909C15.1443 3.43615 15.2695 3.51986 15.3749 3.6254C15.4802 3.73094 15.5637 3.85624 15.6205 3.99411C15.6773 4.13198 15.7064 4.27972 15.706 4.42884ZM18.932 5.58184C18.9633 4.10518 18.4123 2.6755 17.398 1.60184C16.3232 0.589389 14.8953 0.0370991 13.419 0.0628438C11.851 -0.0261562 7.14999 -0.0261562 5.58199 0.0628438C4.10709 0.0358483 2.68012 0.586754 1.60599 1.59784C0.591549 2.67176 0.0389541 4.10082 0.0669941 5.57784C-0.0220059 7.14584 -0.0220059 11.8468 0.0669941 13.4148C0.0370133 14.8922 0.589883 16.322 1.60599 17.3948C2.6822 18.4051 4.11016 18.9555 5.58599 18.9288C7.15399 19.0178 11.855 19.0178 13.423 18.9288C14.8997 18.9602 16.3293 18.4091 17.403 17.3948C18.4139 16.319 18.9643 14.8908 18.937 13.4148C19.026 11.8468 19.026 7.14984 18.937 5.58184H18.932ZM16.906 15.0978C16.7455 15.506 16.5029 15.8769 16.1933 16.1875C15.8837 16.4981 15.5136 16.7419 15.106 16.9038C13.856 17.4038 10.888 17.2848 9.50599 17.2848C8.12399 17.2848 5.15299 17.3948 3.90599 16.9038C3.49728 16.7426 3.12606 16.4991 2.81539 16.1885C2.50471 15.8778 2.26121 15.5066 2.09999 15.0978C1.59999 13.8478 1.71899 10.8798 1.71899 9.49784C1.71899 8.11584 1.60899 5.14484 2.09999 3.89784C2.26144 3.4895 2.50504 3.11867 2.81571 2.80835C3.12637 2.49803 3.49747 2.25484 3.90599 2.09384C5.15599 1.59384 8.12399 1.71284 9.50599 1.71284C10.888 1.71284 13.859 1.60284 15.106 2.09384C15.5135 2.25563 15.8835 2.49929 16.1931 2.80975C16.5027 3.12022 16.7453 3.49089 16.906 3.89884C17.406 5.14884 17.287 8.11684 17.287 9.49884C17.287 10.8808 17.406 13.8518 16.906 15.0978Z" fill="white"/>
</svg>
