<svg width="22" height="18" viewBox="0 0 22 18" fill="none" xmlns="http://www.w3.org/2000/svg">
<path d="M19.8 0.200195H2.2C1.61843 0.203103 1.06168 0.436172 0.651471 0.848437C0.241267 1.2607 0.0109926 1.81862 0.0109999 2.4002L0 15.6002C0.0015835 16.1832 0.233877 16.7418 0.646114 17.1541C1.05835 17.5663 1.61701 17.7986 2.2 17.8002H19.8C20.383 17.7986 20.9416 17.5663 21.3539 17.1541C21.7661 16.7418 21.9984 16.1832 22 15.6002V2.4002C21.9984 1.81721 21.7661 1.25855 21.3539 0.84631C20.9416 0.434072 20.383 0.201779 19.8 0.200195ZM19.8 15.6002H2.2V4.60019L11 10.1002L19.8 4.60019V15.6002ZM11 7.9002L2.2 2.4002H19.8L11 7.9002Z" fill="white"/>
</svg>
