<svg width="23" height="22" viewBox="0 0 23 22" fill="none" xmlns="http://www.w3.org/2000/svg">
<path d="M7.58523 1.0104C7.25439 0.24714 6.38216 -0.159114 5.54861 0.0583753L1.76752 1.04323C1.0199 1.24021 0.5 1.88857 0.5 2.62721C0.5 12.7795 9.11915 21.0112 19.7492 21.0112C20.5226 21.0112 21.2014 20.5147 21.4077 19.8007L22.4389 16.1895C22.6666 15.3934 22.2412 14.5604 21.442 14.2444L17.3172 12.603C16.6169 12.324 15.8048 12.5168 15.3279 13.079L13.592 15.1021C10.5671 13.7356 8.11802 11.3966 6.68723 8.50764L8.80549 6.8539C9.39414 6.3943 9.59608 5.62282 9.30391 4.95394L7.58523 1.01451V1.0104Z" fill="white"/>
</svg>
