<svg width="22" height="18" viewBox="0 0 22 18" fill="none" xmlns="http://www.w3.org/2000/svg">
<path d="M19.739 4.45305C19.753 4.65305 19.753 4.84405 19.753 5.03905C19.7647 6.72704 19.4409 8.40053 18.8003 9.9623C18.1597 11.5241 17.2152 12.943 16.0216 14.1366C14.8279 15.3302 13.409 16.2748 11.8473 16.9153C10.2855 17.5559 8.61199 17.8797 6.924 17.868C4.46922 17.8744 2.06485 17.1716 0 15.844C0.361597 15.8839 0.725219 15.9026 1.089 15.9C3.1191 15.9058 5.0919 15.2273 6.689 13.974C5.74809 13.957 4.83602 13.6464 4.08017 13.0858C3.32432 12.5252 2.76243 11.7425 2.473 10.847C2.75484 10.8917 3.03965 10.9151 3.325 10.917C3.72556 10.9158 4.12437 10.864 4.512 10.763C3.49024 10.5571 2.57135 10.0037 1.91157 9.19676C1.2518 8.38986 0.89187 7.37935 0.893 6.33705V6.28205C1.51779 6.6306 2.21609 6.82659 2.931 6.85405C1.97349 6.21636 1.29545 5.23728 1.03527 4.11666C0.775097 2.99605 0.952403 1.81838 1.531 0.824048C2.66389 2.21837 4.07727 3.35893 5.67943 4.17173C7.28159 4.98453 9.03675 5.4514 10.831 5.54205C10.7585 5.20244 10.721 4.8563 10.719 4.50905C10.7205 3.60536 10.9932 2.72293 11.5019 1.97602C12.0106 1.22911 12.7318 0.652109 13.5722 0.319742C14.4125 -0.0126251 15.3333 -0.0850541 16.2152 0.111833C17.0972 0.308721 17.8998 0.765856 18.519 1.42405C19.5289 1.22958 20.4973 0.861094 21.381 0.335048C21.0447 1.37637 20.3404 2.25946 19.4 2.81905C20.2968 2.71683 21.1731 2.48088 22 2.11905C21.3828 3.01768 20.6184 3.80574 19.739 4.45005V4.45305Z" fill="white"/>
</svg>
